<?xml version="1.0" encoding="iso-8859-1"?>
<!-- Uploaded to: SVG Repo, www.svgrepo.com, Generator: SVG Repo Mixer Tools -->
<!DOCTYPE svg PUBLIC "-//W3C//DTD SVG 1.1//EN" "http://www.w3.org/Graphics/SVG/1.1/DTD/svg11.dtd">
<svg fill="#000000" version="1.1" id="Capa_1" xmlns="http://www.w3.org/2000/svg" xmlns:xlink="http://www.w3.org/1999/xlink" 
	 width="800px" height="800px" viewBox="0 0 375.75 375.749"
	 xml:space="preserve">
<g>
	<g>
		<path d="M108.691,343.714H64.377c-19.86,0-36.002-16.148-36.002-36.005V57.21c-0.006-19.859,16.142-36.008,36.002-36.008h120.471
			V69.83c0,21.906,17.817,39.726,39.731,39.726h48.629v133.157h10.601h10.607V98.961c0-0.691-0.073-1.376-0.201-2.046
			c0-0.012,0-0.024-0.006-0.037c-0.171-0.88-0.505-1.726-0.901-2.536c-0.109-0.225-0.231-0.444-0.353-0.654
			c-0.438-0.768-0.95-1.51-1.596-2.159c-0.019-0.018-0.024-0.042-0.043-0.064L247.14,47.288L202.963,3.111
			c-0.682-0.679-1.461-1.215-2.283-1.684c-0.183-0.098-0.365-0.198-0.542-0.292c-0.676-0.338-1.382-0.59-2.113-0.779
			c-0.493-0.131-0.998-0.167-1.51-0.225c-0.256-0.031-0.512-0.085-0.773-0.092c-0.091,0-0.188-0.039-0.28-0.039H64.377
			C32.833,0,7.167,25.666,7.167,57.21v250.499c0,31.548,25.666,57.214,57.211,57.214h56.684c-2.832-3.276-5.343-6.82-7.508-10.602
			C111.629,350.954,110.013,347.41,108.691,343.714z M224.58,88.354c-10.224,0-18.529-8.309-18.529-18.523V36.19l52.16,52.163
			H224.58z"/>
		<path d="M233.318,141.91H68.262c-5.849,0-10.601,4.75-10.601,10.599c0,5.852,4.752,10.601,10.601,10.601h165.056
			c5.852,0,10.607-4.75,10.607-10.601C243.925,146.66,239.169,141.91,233.318,141.91z"/>
		<path d="M233.318,212.633H68.262c-5.849,0-10.601,4.756-10.601,10.607c0,5.846,4.752,10.596,10.601,10.596h165.056
			c5.852,0,10.607-4.75,10.607-10.596C243.925,217.389,239.169,212.633,233.318,212.633z"/>
		<path d="M302.041,320.771h11.946v-13.95c0-1.133,0.019-2.266,0.049-3.393c-0.633,1.127-1.278,2.241-2.009,3.465L302.041,320.771z"
			/>
		<path d="M313.981,255.184h-19.57h-10.607h-10.602H171.775c-30.157,0-54.599,24.442-54.599,54.596v11.375
			c0,8.049,1.791,15.673,4.92,22.554c1.72,3.794,3.873,7.331,6.372,10.602c3.081,4.013,6.698,7.575,10.756,10.601
			c9.098,6.777,20.335,10.839,32.55,10.839h142.206c30.153,0,54.602-24.441,54.602-54.595v-11.375
			C368.583,279.626,344.134,255.184,313.981,255.184z M239.578,311.996c0.95,1.437,1.778,2.776,2.667,4.25
			c0.646-1.096,1.278-2.131,1.912-3.154l0.7-1.133l4.957-7.52h8.822l-11.977,17.007l10.856,15.972l1.438,2.107h-4.92h-4.22
			l-5.146-7.91c-1.011-1.48-1.894-2.923-2.838-4.53c-0.621,1.047-1.254,2.063-1.912,3.111l-5.961,9.322H225l12.446-17.884
			l-11.893-17.195h9.006L239.578,311.996z M217.681,291.342l8.251-0.816l-0.359,1.315c-1.517,5.535-4.481,13.079-6.479,16.483
			l-0.23,0.396l-5.834,0.725l0.536-1.443c1.485-3.994,3.251-10.997,4.007-15.941L217.681,291.342z M203.408,308.014
			c1.328-3.702,3.233-10.857,4.013-15.954l0.116-0.718l8.244-0.816l-0.358,1.315c-1.528,5.554-4.5,13.104-6.479,16.483l-0.231,0.396
			l-5.803,0.719L203.408,308.014z M184.748,292.297c9.972,0,15.689,8.574,15.689,23.517c0,15.546-5.992,24.466-16.441,24.466
			c-9.542,0-15.552-9.139-15.688-23.845C168.313,301.541,174.609,292.297,184.748,292.297z M133.745,334.477l5.018-4.865
			c11.457-10.905,16.252-16.471,16.319-22.67c0-3.531-1.373-7.758-7.919-7.758c-3.791,0-6.914,1.931-8.866,3.545l-0.941,0.791
			l-2.725-6.016l0.542-0.451c3.629-3.068,8.324-4.762,13.226-4.762c10.075,0,14.59,6.984,14.59,13.908
			c0,8.848-6.491,15.783-15.658,24.612l-1.976,1.814h18.73v6.887h-30.339V334.477z M290.483,339.519h-5.761h-13.518h-11.058v-4.079
			v-0.963l5.018-4.865c0.7-0.663,1.297-1.254,1.948-1.881c9.998-9.646,14.31-14.961,14.37-20.789c0-3.531-1.37-7.758-7.916-7.758
			c-0.128,0-0.243,0.037-0.365,0.043c-3.623,0.116-6.625,1.942-8.5,3.502l-0.944,0.791l-2.722-6.016l0.536-0.451
			c3.233-2.734,7.319-4.293,11.63-4.621c0.536-0.043,1.054-0.141,1.596-0.141c3.763,0,6.747,0.975,9.006,2.552
			c3.806,2.648,5.584,7.015,5.584,11.356c0,6.211-3.246,11.496-8.33,17.146c-2.155,2.387-4.604,4.835-7.325,7.466l-1.979,1.814h4.78
			h12.075h1.875V339.519z M327.797,327.377h-6.235v12.142h-7.575v-12.142h-20.715v-5.206l20.35-29.118h7.94v27.718h6.235V327.377z
			 M335.117,308.72l-5.803,0.725l0.505-1.425c1.321-3.708,3.228-10.857,4.007-15.947l0.115-0.719l8.251-0.828l-0.365,1.315
			c-1.51,5.541-4.481,13.085-6.479,16.489L335.117,308.72z M351.984,291.841c-1.522,5.535-4.488,13.079-6.479,16.483l-0.231,0.396
			l-5.84,0.725l0.543-1.443c1.485-3.994,3.251-10.997,4.006-15.941l0.109-0.718l8.252-0.816L351.984,291.841z"/>
		<path d="M184.337,333.734c7.127,0,8.18-11.059,8.18-17.652c0-6.443-1.053-17.251-8.116-17.251c-5.051,0-8.181,6.771-8.181,17.658
			C176.22,327.133,179.332,333.734,184.337,333.734z"/>
	</g>
</g>
</svg>